{
	"asset":{
		"generator":"Khronos glTF Blender I/O v4.1.63",
		"version":"2.0"
	},
	"scene":0,
	"scenes":[
		{
			"name":"Scene",
			"nodes":[
				0,
				1,
				2,
				3,
				4,
				5,
				6
			]
		}
	],
	"nodes":[
		{
			"mesh":0,
			"name":"couverture_back"
		},
		{
			"mesh":1,
			"name":"page5",
			"translation":[
				0,
				0.019999999552965164,
				0
			]
		},
		{
			"mesh":2,
			"name":"page4",
			"translation":[
				0,
				0.03999999910593033,
				0
			]
		},
		{
			"mesh":3,
			"name":"page3",
			"translation":[
				0,
				0.059999994933605194,
				0
			]
		},
		{
			"mesh":4,
			"name":"page2",
			"translation":[
				0,
				0.07999999821186066,
				0
			]
		},
		{
			"mesh":5,
			"name":"page1",
			"translation":[
				0,
				0.09999999403953552,
				0
			]
		},
		{
			"mesh":6,
			"name":"couverture_front",
			"translation":[
				0,
				0.11999998986721039,
				0
			]
		}
	],
	"materials":[
		{
			"doubleSided":true,
			"name":"couv_back.002",
			"pbrMetallicRoughness":{
				"baseColorFactor":[
					0,
					0,
					0,
					1
				],
				"metallicFactor":0,
				"roughnessFactor":0.5
			}
		},
		{
			"doubleSided":true,
			"name":"Material.012",
			"pbrMetallicRoughness":{
				"baseColorTexture":{
					"index":0
				},
				"metallicFactor":0,
				"roughnessFactor":0.5
			}
		},
		{
			"doubleSided":true,
			"name":"Material.011",
			"pbrMetallicRoughness":{
				"baseColorTexture":{
					"index":1
				},
				"metallicFactor":0,
				"roughnessFactor":0.5
			}
		},
		{
			"doubleSided":true,
			"name":"Material.010",
			"pbrMetallicRoughness":{
				"baseColorTexture":{
					"index":2
				},
				"metallicFactor":0,
				"roughnessFactor":0.5
			}
		},
		{
			"doubleSided":true,
			"name":"Material.009",
			"pbrMetallicRoughness":{
				"baseColorTexture":{
					"index":3
				},
				"metallicFactor":0,
				"roughnessFactor":0.5
			}
		},
		{
			"doubleSided":true,
			"name":"Material.008",
			"pbrMetallicRoughness":{
				"baseColorTexture":{
					"index":4
				},
				"metallicFactor":0,
				"roughnessFactor":0.5
			}
		},
		{
			"doubleSided":true,
			"name":"couv_front.002",
			"pbrMetallicRoughness":{
				"baseColorTexture":{
					"index":5
				},
				"metallicFactor":0,
				"roughnessFactor":0.5
			}
		}
	],
	"meshes":[
		{
			"name":"Cube.015",
			"primitives":[
				{
					"attributes":{
						"POSITION":0,
						"NORMAL":1,
						"TEXCOORD_0":2
					},
					"indices":3,
					"material":0
				}
			]
		},
		{
			"name":"Cube.016",
			"primitives":[
				{
					"attributes":{
						"POSITION":4,
						"NORMAL":5,
						"TEXCOORD_0":6
					},
					"indices":7,
					"material":1
				}
			]
		},
		{
			"name":"Cube.017",
			"primitives":[
				{
					"attributes":{
						"POSITION":8,
						"NORMAL":9,
						"TEXCOORD_0":10
					},
					"indices":7,
					"material":2
				}
			]
		},
		{
			"name":"Cube.018",
			"primitives":[
				{
					"attributes":{
						"POSITION":11,
						"NORMAL":12,
						"TEXCOORD_0":13
					},
					"indices":7,
					"material":3
				}
			]
		},
		{
			"name":"Cube.019",
			"primitives":[
				{
					"attributes":{
						"POSITION":14,
						"NORMAL":15,
						"TEXCOORD_0":16
					},
					"indices":7,
					"material":4
				}
			]
		},
		{
			"name":"Cube.020",
			"primitives":[
				{
					"attributes":{
						"POSITION":17,
						"NORMAL":18,
						"TEXCOORD_0":19
					},
					"indices":7,
					"material":5
				}
			]
		},
		{
			"name":"Cube.021",
			"primitives":[
				{
					"attributes":{
						"POSITION":20,
						"NORMAL":21,
						"TEXCOORD_0":22
					},
					"indices":7,
					"material":6
				}
			]
		}
	],
	"textures":[
		{
			"sampler":0,
			"source":0
		},
		{
			"sampler":0,
			"source":1
		},
		{
			"sampler":0,
			"source":2
		},
		{
			"sampler":0,
			"source":3
		},
		{
			"sampler":0,
			"source":4
		},
		{
			"sampler":0,
			"source":5
		}
	],
	"images":[
		{
			"mimeType":"image/png",
			"name":"Page_Five",
			"uri":"Page_Five.png"
		},
		{
			"mimeType":"image/png",
			"name":"Page_Four",
			"uri":"Page_Four.png"
		},
		{
			"mimeType":"image/png",
			"name":"Page_Three",
			"uri":"Page_Three.png"
		},
		{
			"mimeType":"image/png",
			"name":"Page_Two",
			"uri":"Page_Two.png"
		},
		{
			"mimeType":"image/png",
			"name":"Page_One",
			"uri":"Page_One.png"
		},
		{
			"mimeType":"image/png",
			"name":"couv_front",
			"uri":"couv_front.png"
		}
	],
	"accessors":[
		{
			"bufferView":0,
			"componentType":5126,
			"count":78,
			"max":[
				1.600000023841858,
				0.009999998845160007,
				1
			],
			"min":[
				0,
				-0.010000000707805157,
				-1
			],
			"type":"VEC3"
		},
		{
			"bufferView":1,
			"componentType":5126,
			"count":78,
			"type":"VEC3"
		},
		{
			"bufferView":2,
			"componentType":5126,
			"count":78,
			"type":"VEC2"
		},
		{
			"bufferView":3,
			"componentType":5123,
			"count":156,
			"type":"SCALAR"
		},
		{
			"bufferView":4,
			"componentType":5126,
			"count":64,
			"max":[
				1.600000023841858,
				0.009999997913837433,
				1
			],
			"min":[
				0,
				-0.010000000707805157,
				-1
			],
			"type":"VEC3"
		},
		{
			"bufferView":5,
			"componentType":5126,
			"count":64,
			"type":"VEC3"
		},
		{
			"bufferView":6,
			"componentType":5126,
			"count":64,
			"type":"VEC2"
		},
		{
			"bufferView":7,
			"componentType":5123,
			"count":156,
			"type":"SCALAR"
		},
		{
			"bufferView":8,
			"componentType":5126,
			"count":64,
			"max":[
				1.600000023841858,
				0.009999997913837433,
				1
			],
			"min":[
				0,
				-0.010000001639127731,
				-1
			],
			"type":"VEC3"
		},
		{
			"bufferView":9,
			"componentType":5126,
			"count":64,
			"type":"VEC3"
		},
		{
			"bufferView":10,
			"componentType":5126,
			"count":64,
			"type":"VEC2"
		},
		{
			"bufferView":11,
			"componentType":5126,
			"count":64,
			"max":[
				1.600000023841858,
				0.01000000536441803,
				1
			],
			"min":[
				0,
				-0.009999997913837433,
				-1
			],
			"type":"VEC3"
		},
		{
			"bufferView":12,
			"componentType":5126,
			"count":64,
			"type":"VEC3"
		},
		{
			"bufferView":13,
			"componentType":5126,
			"count":64,
			"type":"VEC2"
		},
		{
			"bufferView":14,
			"componentType":5126,
			"count":64,
			"max":[
				1.600000023841858,
				0.009999997913837433,
				1
			],
			"min":[
				0,
				-0.009999997913837433,
				-1
			],
			"type":"VEC3"
		},
		{
			"bufferView":15,
			"componentType":5126,
			"count":64,
			"type":"VEC3"
		},
		{
			"bufferView":16,
			"componentType":5126,
			"count":64,
			"type":"VEC2"
		},
		{
			"bufferView":17,
			"componentType":5126,
			"count":64,
			"max":[
				1.600000023841858,
				0.009999997913837433,
				1
			],
			"min":[
				0,
				-0.009999997913837433,
				-1
			],
			"type":"VEC3"
		},
		{
			"bufferView":18,
			"componentType":5126,
			"count":64,
			"type":"VEC3"
		},
		{
			"bufferView":19,
			"componentType":5126,
			"count":64,
			"type":"VEC2"
		},
		{
			"bufferView":20,
			"componentType":5126,
			"count":64,
			"max":[
				1.600000023841858,
				0.01000000536441803,
				1
			],
			"min":[
				0,
				-0.009999997913837433,
				-1
			],
			"type":"VEC3"
		},
		{
			"bufferView":21,
			"componentType":5126,
			"count":64,
			"type":"VEC3"
		},
		{
			"bufferView":22,
			"componentType":5126,
			"count":64,
			"type":"VEC2"
		}
	],
	"bufferViews":[
		{
			"buffer":0,
			"byteLength":936,
			"byteOffset":0,
			"target":34962
		},
		{
			"buffer":0,
			"byteLength":936,
			"byteOffset":936,
			"target":34962
		},
		{
			"buffer":0,
			"byteLength":624,
			"byteOffset":1872,
			"target":34962
		},
		{
			"buffer":0,
			"byteLength":312,
			"byteOffset":2496,
			"target":34963
		},
		{
			"buffer":0,
			"byteLength":768,
			"byteOffset":2808,
			"target":34962
		},
		{
			"buffer":0,
			"byteLength":768,
			"byteOffset":3576,
			"target":34962
		},
		{
			"buffer":0,
			"byteLength":512,
			"byteOffset":4344,
			"target":34962
		},
		{
			"buffer":0,
			"byteLength":312,
			"byteOffset":4856,
			"target":34963
		},
		{
			"buffer":0,
			"byteLength":768,
			"byteOffset":5168,
			"target":34962
		},
		{
			"buffer":0,
			"byteLength":768,
			"byteOffset":5936,
			"target":34962
		},
		{
			"buffer":0,
			"byteLength":512,
			"byteOffset":6704,
			"target":34962
		},
		{
			"buffer":0,
			"byteLength":768,
			"byteOffset":7216,
			"target":34962
		},
		{
			"buffer":0,
			"byteLength":768,
			"byteOffset":7984,
			"target":34962
		},
		{
			"buffer":0,
			"byteLength":512,
			"byteOffset":8752,
			"target":34962
		},
		{
			"buffer":0,
			"byteLength":768,
			"byteOffset":9264,
			"target":34962
		},
		{
			"buffer":0,
			"byteLength":768,
			"byteOffset":10032,
			"target":34962
		},
		{
			"buffer":0,
			"byteLength":512,
			"byteOffset":10800,
			"target":34962
		},
		{
			"buffer":0,
			"byteLength":768,
			"byteOffset":11312,
			"target":34962
		},
		{
			"buffer":0,
			"byteLength":768,
			"byteOffset":12080,
			"target":34962
		},
		{
			"buffer":0,
			"byteLength":512,
			"byteOffset":12848,
			"target":34962
		},
		{
			"buffer":0,
			"byteLength":768,
			"byteOffset":13360,
			"target":34962
		},
		{
			"buffer":0,
			"byteLength":768,
			"byteOffset":14128,
			"target":34962
		},
		{
			"buffer":0,
			"byteLength":512,
			"byteOffset":14896,
			"target":34962
		}
	],
	"samplers":[
		{
			"magFilter":9729,
			"minFilter":9987
		}
	],
	"buffers":[
		{
			"byteLength":15408,
			"uri":"book.bin"
		}
	]
}
